<?xml version="1.0" encoding="utf-8"?>
<!-- Generator: Adobe Illustrator 27.5.0, SVG Export Plug-In . SVG Version: 6.00 Build 0)  -->
<svg version="1.1" id="Layer_1" xmlns="http://www.w3.org/2000/svg" xmlns:xlink="http://www.w3.org/1999/xlink" x="0px" y="0px"
	 viewBox="0 0 4000 4000" style="enable-background:new 0 0 4000 4000;" xml:space="preserve">
<g>
	<rect style="fill:transparent;" width="4000" height="4000"/>
	<g>
		<g>
			<g>
				<path style="fill:#F4B823;" d="M1200.8,1211.148c0,0,76.875,16.25,52.5,68.125s-56.875,75.625-32.5,119.375
					c0,0-66.25-19.375-54.375-69.375S1228.925,1254.898,1200.8,1211.148z"/>
			</g>
			<g>
				<path style="fill:#F4B823;" d="M808.333,1718.006c0,0,64.375,19.375,54.375,90s-43.75,74.375-69.375,71.25
					s-48.125-58.125-10-86.25S808.333,1718.006,808.333,1718.006z"/>
			</g>
			<g>
				<path style="fill:#F4B823;" d="M2763.333,939.167c0,0,60.833,20,44.167,64.167c-16.667,44.167-46.667,65-40,105
					c0,0-63.333-16.667-51.667-61.667C2727.5,1001.667,2786.667,974.167,2763.333,939.167z"/>
			</g>
			<g>
				<path style="fill:#F4B823;" d="M3173.333,1755.651c0,0-4.167,49.167,38.333,83.333s-9.167,113.333-48.333,91.667
					C3124.167,1908.984,3104.167,1820.651,3173.333,1755.651z"/>
			</g>
			<g>
				<path style="fill:#F4B823;" d="M2484.314,2681.542c0,0,46.667,9.167,48.333,56.667c1.667,47.5-55.833,68.333-39.167,110.833
					c0,0-53.333-16.667-48.333-59.167S2521.814,2704.042,2484.314,2681.542z"/>
			</g>
			<g>
				<path style="fill:#F4B823;" d="M1515,2789.167c0,0,80.833,9.167,76.667,78.333c-4.167,69.167-101.667,68.333-100,109.167
					c0,0-60-0.833-25.833-56.667C1500,2864.167,1545,2833.333,1515,2789.167z"/>
			</g>
		</g>
		<linearGradient id="SVGID_1_" gradientUnits="userSpaceOnUse" x1="1993.9508" y1="3584.1375" x2="2013.9513" y2="2917.4705">
			<stop  offset="0" style="stop-color:#01C1CA"/>
			<stop  offset="1" style="stop-color:#3752C4"/>
		</linearGradient>
		<path style="fill:url(#SVGID_1_);" d="M2316.961,2859.957c0,0,43.247,120.043,174.914,288.376c0,0,120,10,164.167,99.167
			l-55,9.167c0,0,10.833,62.5,110,105c0,0-61.667,134.167-228.333,47.5l0.417,43.333c0,0-87.5-25-121.25-105l-44.914,6.25
			c0,0,1.164,81.25,96.164,123.75c0,0-56.25,107.5-205,30v37.5c0,0-60-23.75-77.5-63.75l-33.75-8.75c0,0,13.75,127.5-96.25,191.25
			c-110-63.75-96.25-191.25-96.25-191.25l-33.75,8.75c-17.5,40-77.5,63.75-77.5,63.75v-37.5c-148.75,77.5-205-30-205-30
			c95-42.5,96.164-123.75,96.164-123.75l-44.914-6.25c-33.75,80-121.25,105-121.25,105l0.417-43.333
			c-166.667,86.667-228.333-47.5-228.333-47.5c99.167-42.5,110-105,110-105l-55-9.167c44.167-89.167,164.167-99.167,164.167-99.167
			c131.667-168.333,174.914-288.376,174.914-288.376"/>
		
			<linearGradient id="SVGID_00000007429197427891315820000006330236118225411749_" gradientUnits="userSpaceOnUse" x1="1989.2168" y1="3030.1328" x2="2009.2168" y2="2593.467">
			<stop  offset="0" style="stop-color:#3752C4"/>
			<stop  offset="1" style="stop-color:#FD8201"/>
		</linearGradient>
		<path style="fill:url(#SVGID_00000007429197427891315820000006330236118225411749_);" d="M2284.219,2600.132
			c64.381,78.618,105.844,233.217,29.978,194.868c0,0,21.061,141.25-34.47,158.75c-55.53,17.5-80.694-87.883-80.694-87.883
			c-10.307,8.188-21.736,9.931-34.211,5.681c0,0-8.542,77.619-56.042,90.952c0,0-31.667,3.333-53.333-60
			c0,0-16.25,46.667-53.125,52.5H2000c-36.875-5.833-53.125-52.5-53.125-52.5c-21.667,63.333-53.333,60-53.333,60
			c-47.5-13.333-56.042-90.952-56.042-90.952c-12.475,4.25-23.904,2.507-34.211-5.681c0,0-25.164,105.383-80.694,87.883
			s-34.47-158.75-34.47-158.75c-75.865,38.349-34.403-116.25,29.978-194.868"/>
		
			<linearGradient id="SVGID_00000175292589317167176000000003123391101628028310_" gradientUnits="userSpaceOnUse" x1="1999.9968" y1="358.0348" x2="1999.9968" y2="2262.9404">
			<stop  offset="0" style="stop-color:#FF9600"/>
			<stop  offset="1" style="stop-color:#FD8201"/>
		</linearGradient>
		<path style="fill:url(#SVGID_00000175292589317167176000000003123391101628028310_);" d="M3082.275,2467.5
			c0,0,31.699-135.85-41.65-250.85c0,0,35,283.35-200,333.35c0,0,60-108.35,31.65-275c0,0-10,220-215,275c0,0,43.35-65,33.35-215
			c0,0-21.65,186.65-240,245c0,0,18.35-23.35,15-115c0,0-43.35,45-160,75c0,0-39.4,161.85-143.1,115.6c0,0-59.75,42.35-156.9,43.15
			h-11.25c-97.1-0.8-156.9-43.15-156.9-43.15c-103.7,46.3-143.1-115.6-143.1-115.6c-116.65-30-160-75-160-75
			c-3.35,91.65,15,115,15,115c-218.35-58.35-240-245-240-245c-10,150,33.35,215,33.35,215c-205-55-215-275-215-275
			c-28.35,166.65,31.65,275,31.65,275c-235-50-200-333.35-200-333.35c-73.35,115-41.65,250.85-41.65,250.85
			c-174.2-130-58.35-434.15,0-544.15c0.35-0.649,0.65-1.25,1-1.899c56.9-108.55,20.65-146.45,20.65-146.45
			c70,8.35,76.65,80,76.65,80c30-55,148.35-150,236.699-170c88.301-20,95-61.65,95-61.65c61.65,100-25,101.65-25,101.65
			c-13.55,66.75,311.65,208.35,423.301,166.65c-171.65-49.15-328.051-216.1-385.4-381.65l60,18.75
			c-47.5-53.75-79.65-203.35-27.5-273.75c0,0,0,72.5,48.75,83.75c30.1,6.95,37.95-42.45,51.3-104c0,0-123.8-179.75,56.2-347.25
			s337.5-315,392.5-440c0,0,90,127.5,12.5,275c0,0,272.5-15,425-380c0,0,85,237.25-20,446.1c0,0,125,83.9,230-23.6
			c0,0,23.35,145-110,213.35c0,0,46.65,65,120,16.65c-8.35,63.35-72.1,134.5-130.4,121.65c50,96.7,40.4,233.35,89.15,222.1
			s48.75-83.75,48.75-83.75c52.15,70.4,20,220-27.5,273.75l60-18.75c-57.35,165.55-213.75,332.5-385.4,381.65
			c111.65,41.7,436.851-99.9,423.301-166.65c0,0-86.65-1.65-25-101.65c0,0,6.699,41.65,95,61.65c88.35,20,206.699,115,236.699,170
			c0,0,6.65-71.65,76.65-80c0,0-36.65,38.35,21.65,148.35c14.85,27.95,33.4,68.45,49.95,115.5
			C3180.775,2176.75,3212.175,2370.55,3082.275,2467.5z"/>
		<g style="opacity:0.6;">
			<path style="fill:#FFFFFF;" d="M1369.725,1399.75c-7.75-53.45-2.95-109.2,23.4-144.75c0,0,0,72.5,48.75,83.75
				c25,5.75,34.65-27.35,44.9-74.05c5.65,10.75,9.75,16.7,9.75,16.7c-13.35,61.55-21.2,110.95-51.3,104
				c-48.75-11.25-48.75-83.75-48.75-83.75C1377.775,1326.9,1369.925,1362.25,1369.725,1399.75z"/>
		</g>
		<g style="opacity:0.6;">
			<path style="fill:#FFFFFF;" d="M1985.825,601.9c-10.3-64.85-40.601-107.75-40.601-107.75c-55,125-212.5,272.5-392.5,440
				c-73.6,68.5-96.4,139.05-97.65,198.5c-10.85-66.801,0.25-157.65,94.3-245.15c180-167.5,337.5-315,392.5-440
				C1941.875,447.5,1987.275,511.8,1985.825,601.9z"/>
		</g>
		<g style="opacity:0.6;">
			<path style="fill:#FFFFFF;" d="M2382.725,389.15c-152.5,365-425,380-425,380c8.95-17,15.651-33.75,20.551-50.05
				c69.75-13.15,275.9-76.9,401.1-376.6c0,0,28.1,78.35,32.05,184.7C2402.875,445.35,2382.725,389.15,2382.725,389.15z"/>
		</g>
		<g style="opacity:0.6;">
			<path style="fill:#FFFFFF;" d="M2378.925,799.25c39.2,18.55,130.601,47.5,210.45-34.25c0,0,3.3,20.45,0.35,49.65
				c-104.351,102.9-227.001,20.6-227.001,20.6C2368.725,823.35,2374.075,811.3,2378.925,799.25z"/>
		</g>
		<g style="opacity:0.6;">
			<path style="fill:#FFFFFF;" d="M1309.339,1728.75c0,0-37.464,151.25,381.911,208.728l3.125-29.978
				C1523.605,1875.627,1367.983,1833.858,1309.339,1728.75z"/>
		</g>
		<g style="opacity:0.6;">
			<path style="fill:#FFFFFF;" d="M2685.373,1728.75c0,0,37.464,151.25-381.911,208.728l-3.125-29.978
				C2471.107,1875.627,2626.728,1833.858,2685.373,1728.75z"/>
		</g>
		
			<linearGradient id="SVGID_00000123417034460556660850000012884368252462512571_" gradientUnits="userSpaceOnUse" x1="1214.2367" y1="2606.1145" x2="1297.5701" y2="2182.781">
			<stop  offset="0" style="stop-color:#3752C4"/>
			<stop  offset="1" style="stop-color:#FD8201"/>
		</linearGradient>
		<path style="fill:url(#SVGID_00000123417034460556660850000012884368252462512571_);" d="M1534.375,2465
			c-3.35,91.65,15,115,15,115c-218.35-58.35-240-245-240-245c-10,150,33.35,215,33.35,215c-205-55-215-275-215-275
			c-28.35,166.65,31.65,275,31.65,275c-235-50-200-333.35-200-333.35c-73.35,115-41.65,250.85-41.65,250.85
			c-174.2-130-58.35-434.15,0-544.15c0.35-0.649,0.65-1.25,1-1.899c120.35,80.4,351,215.1,653.6,301.65
			c5.049,81.449,39.5,182.699,122.05,316.9C1577.725,2510,1534.375,2465,1534.375,2465z"/>
		
			<linearGradient id="SVGID_00000108303139487322960710000003594189758684343703_" gradientUnits="userSpaceOnUse" x1="2772.7468" y1="2542.3997" x2="2726.0803" y2="2302.3997">
			<stop  offset="0" style="stop-color:#3752C4"/>
			<stop  offset="1" style="stop-color:#FD8201"/>
		</linearGradient>
		<path style="fill:url(#SVGID_00000108303139487322960710000003594189758684343703_);" d="M3082.275,2467.5
			c0,0,31.699-135.85-41.65-250.85c0,0,35,283.35-200,333.35c0,0,60-108.35,31.65-275c0,0-10,220-215,275c0,0,43.35-65,33.35-215
			c0,0-21.65,186.65-240,245c0,0,18.35-23.35,15-115c0,0-43.35,45-160,75c62.65-101.9,97.6-184.75,113.05-254.4
			c226.6-32.5,466.85-108.25,713.551-246.75C3180.775,2176.75,3212.175,2370.55,3082.275,2467.5z"/>
		<g>
			<path style="fill:#390075;" d="M1694.393,2557.504c-5.879,0-11.619-2.964-14.922-8.335
				c-216.697-352.305-107.647-489.536-2.188-622.246c10.386-13.069,21.123-26.582,31.367-40.085
				c5.842-7.705,16.821-9.211,24.519-3.367c7.7,5.842,9.207,16.819,3.367,24.519c-10.481,13.818-21.345,27.488-31.85,40.708
				c-52.117,65.583-101.345,127.537-112.981,214.016c-13.147,97.7,25.313,218.115,117.578,368.115
				c5.063,8.232,2.493,19.014-5.74,24.077C1700.687,2556.664,1697.518,2557.504,1694.393,2557.504z"/>
		</g>
		<g>
			<path style="fill:#390075;" d="M975.839,2090.239c6.599-17.17,14.383-33.699,22.738-50.031
				c4.081-8.219,8.586-16.204,12.982-24.279c4.61-7.938,9.324-15.837,14.191-23.65c19.702-31.071,41.781-61.057,67.885-87.883
				l9.82-10.046c3.243-3.386,6.912-6.357,10.357-9.558l10.517-9.448c3.459-3.21,7.399-5.888,11.087-8.86l11.271-8.71
				c3.676-3.021,7.91-5.319,11.852-8.014l12.068-7.801l3.025-1.949l0.235-0.144l0.738-0.376l1.506-0.694
				c1.03-0.416,2.103-0.777,3.187-1.054c2.183-0.534,4.449-0.793,6.667-0.678c8.842,0.308,17.206,5.923,20.688,14.565l2.472,7.8
				c0.617,1.7,1.247,3.41,2.008,5.122c1.382,3.445,3.136,6.858,4.999,10.227c3.697,6.791,8.212,13.363,13.318,19.608
				c10.046,12.673,22.666,23.86,36.333,33.838l-25.498,5.812c1.348-2.325,2.286-3.797,3.419-5.54
				c1.083-1.693,2.206-3.287,3.321-4.907c2.263-3.182,4.6-6.274,7.028-9.283c4.847-6.021,10.061-11.721,15.654-17.082
				c5.561-5.385,11.48-10.453,17.805-15.058c6.226-4.726,13.01-8.78,19.903-12.62c8.328-4.639,18.839-1.649,23.478,6.679
				c1.073,1.925,1.737,3.968,2.023,6.027l0.085,0.664c0.294,2.178,0.847,5.297,1.38,8.025c0.604,2.832,1.176,5.666,1.918,8.494
				c1.369,5.66,3.017,11.283,4.898,16.784c3.733,11.023,8.405,21.612,13.962,31.473c5.694,9.762,12.468,18.535,20.064,26.146
				c7.703,7.523,16.627,13.073,26.009,17.562l-23.243,9.955l0.882-2.125l0.765-1.672c0.502-1.082,1.016-2.119,1.541-3.096
				c1.026-2.034,2.154-3.886,3.257-5.801c2.306-3.695,4.731-7.28,7.39-10.656c5.302-6.757,11.211-13.031,17.846-18.448
				c6.624-5.392,13.669-10.349,21.261-14.188c7.486-4.084,15.428-7.032,23.413-9.63c9.028-2.938,18.728,1.999,21.666,11.027
				c0.532,1.635,0.806,3.292,0.844,4.927l0.016,1.139c0.022,1.2,0.12,3.762,0.337,5.804c0.176,2.168,0.489,4.372,0.807,6.58
				c0.316,2.205,0.804,4.408,1.185,6.615l1.587,6.553c2.303,8.699,5.7,17.042,9.93,24.809c1.952,3.997,4.575,7.549,6.944,11.26
				c2.763,3.411,5.249,7.06,8.417,10.114c5.804,6.607,12.961,11.859,20.211,16.933l-22.364,2.979l37.499-41.249
				c6.5-7.151,17.567-7.677,24.717-1.177c2.85,2.591,4.648,5.907,5.368,9.412l0.076,0.377c0.451,2.188,1.267,5.568,2.121,8.403
				c0.849,2.961,1.828,5.911,2.871,8.826c2.109,5.827,4.598,11.471,7.398,16.834c2.77,5.4,6.067,10.31,9.545,14.905
				c3.507,4.587,7.508,8.417,11.618,11.913l0.765,0.651c7.357,6.259,8.248,17.297,1.989,24.654
				c-6.205,7.294-17.118,8.223-24.474,2.14c-6.541-5.415-12.51-11.351-17.472-17.802c-4.928-6.449-9.333-13.166-12.925-20.125
				c-3.634-6.948-6.745-14.048-9.364-21.284c-1.298-3.624-2.505-7.27-3.573-10.986c-1.113-3.826-1.991-7.191-2.924-11.808
				l30.161,8.612l-37.499,41.249l-0.37,0.407c-5.734,6.308-15.157,7.262-21.995,2.572c-9.643-6.6-19.102-13.737-26.981-22.569
				c-4.202-4.162-7.636-8.972-11.275-13.606c-3.224-4.903-6.642-9.732-9.262-14.967c-5.593-10.287-9.966-21.16-12.942-32.349
				l-2.041-8.442c-0.518-2.856-1.121-5.685-1.541-8.569c-0.421-2.882-0.821-5.771-1.068-8.731c-0.279-3.076-0.458-5.655-0.471-9.597
				l22.525,17.091c-5.907,1.974-11.757,4.088-17.121,7.053c-5.5,2.735-10.464,6.311-15.189,10.116
				c-4.726,3.823-8.89,8.302-12.623,13.038c-1.876,2.368-3.542,4.862-5.124,7.365c-0.709,1.263-1.503,2.529-2.114,3.77
				c-0.346,0.632-0.642,1.235-0.908,1.814l-0.38,0.822c-0.099,0.225-0.255,0.592-0.183,0.404l-23.244,9.956
				c-13.524-6.234-26.162-14.391-36.621-24.6c-10.318-10.246-19.005-21.711-26.054-33.822c-6.887-12.175-12.425-24.836-16.807-37.77
				c-2.207-6.468-4.119-13-5.727-19.631c-0.856-3.294-1.547-6.658-2.255-10.013c-0.667-3.481-1.256-6.586-1.802-10.677
				l25.585,13.369c-5.322,3.007-10.625,6.114-15.557,9.885c-5.008,3.634-9.762,7.702-14.262,12.065
				c-4.527,4.33-8.793,8.99-12.73,13.886c-1.972,2.444-3.859,4.944-5.66,7.47l-2.569,3.796c-0.797,1.181-1.69,2.698-2.091,3.407
				l-0.105,0.186c-4.754,8.41-15.425,11.373-23.835,6.619c-0.537-0.304-1.068-0.644-1.559-0.994
				c-15.745-11.247-30.852-23.982-43.923-39.369c-6.428-7.769-12.326-16.164-17.336-25.311c-2.401-4.64-4.653-9.394-6.52-14.43
				c-0.968-2.485-1.757-5.093-2.534-7.709c-0.355-1.338-0.744-2.635-1.058-4.007l-0.468-2.054l-0.19-0.844
				c0.116,0.551,0.324,1.056,0.526,1.595c1.835,4.383,5.888,6.983,10.181,7.104c1.084,0.016,2.213-0.073,3.289-0.375
				c0.536-0.136,1.069-0.315,1.567-0.537c0.25-0.099,0.495-0.212,0.734-0.337l0.351-0.198c0.029-0.019-0.093,0.05-0.132,0.071
				l-2.822,1.539l-11.321,6.152c-3.725,2.153-7.704,3.869-11.249,6.379l-10.87,7.147c-3.58,2.46-7.386,4.595-10.802,7.325
				l-10.399,7.994c-3.425,2.727-7.058,5.199-10.331,8.14l-9.927,8.709c-26.271,23.5-50.542,49.867-72.454,78.277
				c-21.738,28.497-42.032,58.572-59.367,90.224l-0.043,0.078c-0.664,1.212-2.185,1.657-3.397,0.993
				C975.86,2092.722,975.394,2091.391,975.839,2090.239z"/>
		</g>
		<g>
			<path style="fill:#390075;" d="M1110.815,2280.26c2.845-17.58,5.945-34.789,9.207-52.108c3.282-17.281,6.708-34.523,10.424-51.71
				c7.463-34.347,15.654-68.616,26.506-102.058c0.427-1.316,1.84-2.037,3.156-1.61c1.2,0.39,1.906,1.6,1.696,2.808l-0.006,0.033
				c-5.91,34.298-9.088,68.956-11.551,103.638c-1.214,17.343-2.135,34.712-2.909,52.073c-0.748,17.329-1.358,34.805-1.654,51.964
				l-0.001,0.076c-0.167,9.69-8.158,17.409-17.848,17.242s-17.409-8.158-17.242-17.848
				C1110.607,2281.945,1110.694,2281.045,1110.815,2280.26z"/>
		</g>
		<g>
			<path style="fill:#390075;" d="M1291.877,2335.262c1.115-16.118,2.694-31.61,4.514-47.32c1.842-15.646,3.99-31.241,6.481-46.775
				c5.113-31.03,11.496-61.97,21.38-91.78c0.436-1.314,1.854-2.026,3.168-1.59c1.184,0.393,1.879,1.583,1.686,2.776l-0.007,0.039
				c-4.905,30.526-6.212,61.385-6.294,92.179c0.028,15.407,0.397,30.804,1.066,46.173c0.69,15.305,1.626,30.854,3.001,45.773
				l0.011,0.124c0.89,9.658-6.217,18.209-15.876,19.1c-9.658,0.89-18.209-6.217-19.1-15.875
				C1291.824,2337.166,1291.821,2336.157,1291.877,2335.262z"/>
		</g>
		<g>
			<path style="fill:#390075;" d="M1519.522,2474.254c-3.002-5.65-5.281-10.46-7.574-15.675c-2.335-5.107-4.364-10.274-6.479-15.41
				c-4.005-10.339-7.68-20.745-10.93-31.255c-6.543-21.002-11.596-42.369-14.952-63.948l-1.339-8.064l-0.965-8.126
				c-0.593-5.42-1.363-10.801-1.801-16.222c-0.655-10.875-1.658-21.668-1.496-32.533c-0.598-21.666,1.502-43.257,4.148-64.536
				c0.171-1.37,1.419-2.343,2.79-2.172c1.272,0.158,2.201,1.245,2.192,2.496l-0.001,0.121c-0.131,21.235,0.294,42.368,3.341,63.226
				c1.062,10.455,3.273,20.761,5.106,31.055c1.027,5.133,2.38,10.208,3.549,15.299l1.821,7.617l2.185,7.53
				c5.589,20.105,12.748,39.713,21.179,58.625c4.194,9.464,8.754,18.732,13.553,27.807c2.497,4.474,4.911,8.999,7.547,13.323
				c2.505,4.302,5.395,8.822,7.833,12.336l0.193,0.279c5.522,7.959,3.546,18.887-4.413,24.409
				c-7.959,5.522-18.887,3.546-24.409-4.413C1520.22,2475.475,1519.831,2474.825,1519.522,2474.254z"/>
		</g>
		<g>
			<path style="fill:#390075;" d="M1411.35,2012.344c-7.885,11.293-15.71,22.952-23.339,34.603
				c-7.618,11.691-15.087,23.477-22.116,35.564c-0.697,1.217-2.248,1.638-3.465,0.942c-0.944-0.541-1.405-1.617-1.241-2.631
				c2.381-13.937,5.296-27.81,8.388-41.633c3.129-13.843,6.385-27.543,9.96-41.437c2.435-9.516,12.124-15.256,21.64-12.821
				c9.516,2.435,15.256,12.124,12.821,21.64C1413.46,2008.671,1412.514,2010.659,1411.35,2012.344z"/>
		</g>
		<g>
			<path style="fill:#390075;" d="M1268.904,1953.898c-6.297,5.845-12.874,12.475-19.165,18.967
				c-6.33,6.56-12.593,13.234-18.715,20.049c-12.28,13.606-24.124,27.681-35.512,42.199l-0.017,0.022
				c-1.715,2.186-4.877,2.568-7.062,0.853c-1.882-1.476-2.424-4.027-1.446-6.102c7.97-16.914,16.549-33.616,25.726-50.048
				c4.572-8.229,9.326-16.368,14.211-24.468c4.946-8.148,9.812-16.009,15.421-24.269c5.461-8.05,16.413-10.149,24.463-4.688
				c8.05,5.461,10.149,16.413,4.688,24.463C1270.753,1951.974,1269.831,1953.026,1268.904,1953.898z"/>
		</g>
		<g>
			<path style="fill:#390075;" d="M1531.919,2065.19c-2.316,2.78-5.033,6.652-7.448,10.192c-2.464,3.646-4.841,7.394-7.157,11.202
				c-4.63,7.622-8.853,15.547-12.73,23.679c-3.919,8.125-7.364,16.507-10.337,25.105c-3.123,8.583-5.335,17.436-7.376,26.461
				l-0.025,0.109c-0.306,1.354-1.653,2.204-3.007,1.898c-1.128-0.255-1.905-1.234-1.957-2.335
				c-0.44-9.421-0.661-19.026,0.106-28.572c0.618-9.573,1.787-19.167,3.524-28.683c1.697-9.531,3.832-19.034,6.504-28.44
				c1.34-4.703,2.773-9.401,4.353-14.089c1.65-4.782,3.164-9.157,5.464-14.409l0.247-0.565c3.925-8.963,14.372-13.047,23.335-9.122
				c8.963,3.925,13.047,14.372,9.122,23.335C1533.861,2062.497,1532.937,2063.955,1531.919,2065.19z"/>
		</g>
		<g>
			<path style="fill:#390075;" d="M1826.016,2668.829c-5.544-6.59-10.166-12.818-14.912-19.393
				c-4.667-6.522-9.122-13.172-13.361-19.937c-8.4-13.567-15.989-27.758-21.203-42.706c-0.46-1.319,0.236-2.76,1.555-3.22
				c1.051-0.366,2.18,0.001,2.828,0.833l0.038,0.05c9.332,12.02,20.342,22.355,31.902,31.951c5.817,4.768,11.763,9.346,17.83,13.728
				c6.004,4.311,12.391,8.721,18.292,12.286c8.397,5.072,11.092,15.991,6.02,24.387c-5.072,8.397-15.991,11.092-24.388,6.02
				c-1.691-1.022-3.151-2.281-4.363-3.708L1826.016,2668.829z"/>
		</g>
		<g>
			<path style="fill:#F4B823;" d="M1819.375,2655.625c0,0-100,86.25-101.25,152.5s50.625,33.125,71.25,0c0,0-8.125,65,35,65.625
				s49.375-66.875,49.375-66.875s-3.75,51.259,35,66.879c38.75,15.621,22.173-124.595-20.476-193.55"/>
		</g>
		<g>
			<path style="fill:#390075;" d="M1914.42,2892.46c-3.972,0-8.088-0.811-12.212-2.476c-13.992-5.64-23.762-14.521-30.574-24.448
				c-10.535,15.01-25.918,25.981-47.512,25.713c-14.729-0.215-27.339-5.869-36.462-16.357c-6.401-7.358-10.391-16.348-12.832-25.391
				c-14.165,10.728-30.745,17.539-46.379,12.93c-13.088-3.877-28.538-16.499-27.82-54.639
				c1.36-71.987,96.477-156.069,107.317-165.42c7.322-6.318,18.362-5.503,24.675,1.821c6.314,7.314,5.503,18.359-1.809,24.678
				c-26.169,22.607-94.287,91.753-95.188,139.585c-0.269,14.243,2.356,19.268,3.154,20.454c0.078,0,0.159,0.005,0.239,0.005
				c6.157,0,24.123-11.763,35.503-30.039c4.343-6.982,12.957-10,20.703-7.246c7.744,2.744,12.537,10.513,11.519,18.667
				c-1.14,9.507-0.852,32.271,7.349,41.65c1.819,2.08,4.492,4.214,10.54,4.302c0.093,0.005,0.19,0.005,0.281,0.005
				c25.547,0,31.367-50.483,31.416-50.991c0.884-9.561,9.351-16.548,18.87-15.83c9.565,0.796,16.709,9.146,16.008,18.721
				c-0.02,0.288-1.941,34.707,20.046,47.402c7.695-23.813-4.958-112.949-37.859-166.147c-5.085-8.218-2.542-19.004,5.676-24.087
				c8.23-5.078,19.006-2.534,24.089,5.679c36.863,59.6,60.142,178.823,32.976,211.074
				C1930.386,2888.901,1922.72,2892.46,1914.42,2892.46z M1739.002,2829.208h0.051H1739.002z"/>
		</g>
		<g>
			<path style="fill:#390075;" d="M2305.609,2557.504c-3.127,0-6.292-0.84-9.15-2.598c-8.232-5.063-10.803-15.845-5.74-24.077
				c92.266-150,130.725-270.415,117.578-368.12c-11.638-86.479-60.867-148.428-112.986-214.014
				c-10.503-13.22-21.367-26.89-31.848-40.706c-5.84-7.7-4.333-18.677,3.367-24.519c7.698-5.832,18.677-4.333,24.519,3.367
				c10.242,13.503,20.981,27.014,31.365,40.083c105.461,132.712,214.514,269.944-2.18,622.249
				C2317.227,2554.54,2311.488,2557.504,2305.609,2557.504z"/>
		</g>
		<g>
			<path style="fill:#390075;" d="M3019.588,2092.261c-17.335-31.652-37.629-61.727-59.367-90.224
				c-21.911-28.41-46.183-54.777-72.454-78.277l-9.927-8.709c-3.273-2.941-6.906-5.413-10.331-8.14l-10.399-7.994
				c-3.416-2.73-7.222-4.865-10.802-7.325l-10.87-7.147c-3.544-2.51-7.523-4.227-11.248-6.379l-11.321-6.152l-2.822-1.539
				c-0.039-0.021-0.161-0.09-0.132-0.071l0.351,0.198c0.238,0.126,0.483,0.239,0.733,0.337c0.498,0.223,1.031,0.401,1.567,0.537
				c1.076,0.302,2.205,0.392,3.29,0.375c4.292-0.122,8.345-2.721,10.18-7.104c0.202-0.538,0.41-1.043,0.526-1.595l-0.19,0.844
				l-0.469,2.054c-0.314,1.371-0.703,2.669-1.058,4.007c-0.777,2.616-1.566,5.224-2.534,7.709c-1.867,5.036-4.118,9.79-6.52,14.43
				c-5.01,9.146-10.908,17.542-17.336,25.311c-13.072,15.387-28.178,28.121-43.923,39.369c-7.861,5.615-18.785,3.795-24.4-4.066
				c-0.359-0.502-0.687-1.016-0.985-1.541l-0.115-0.205c-0.401-0.71-1.294-2.227-2.091-3.407l-2.569-3.796
				c-1.8-2.526-3.687-5.026-5.659-7.47c-3.937-4.896-8.203-9.556-12.73-13.886c-4.5-4.362-9.253-8.431-14.262-12.065
				c-4.933-3.771-10.235-6.878-15.557-9.885l25.585-13.369c-0.546,4.091-1.135,7.196-1.802,10.677
				c-0.708,3.355-1.398,6.719-2.255,10.013c-1.608,6.632-3.52,13.164-5.726,19.631c-4.382,12.934-9.921,25.595-16.807,37.77
				c-7.05,12.111-15.736,23.576-26.054,33.822c-10.459,10.21-23.097,18.366-36.621,24.6l-23.244-9.956
				c0.072,0.188-0.084-0.179-0.183-0.404l-0.38-0.822c-0.266-0.579-0.563-1.182-0.908-1.814c-0.611-1.24-1.405-2.506-2.114-3.77
				c-1.581-2.503-3.248-4.998-5.124-7.365c-3.732-4.736-7.896-9.215-12.623-13.038c-4.725-3.805-9.689-7.381-15.189-10.116
				c-5.364-2.965-11.214-5.079-17.122-7.053l22.525-17.091c-0.013,3.942-0.192,6.521-0.471,9.597
				c-0.248,2.959-0.647,5.849-1.068,8.731c-0.42,2.885-1.023,5.713-1.541,8.569l-2.041,8.442
				c-2.976,11.189-7.349,22.062-12.942,32.349c-2.621,5.235-6.038,10.064-9.262,14.967c-3.639,4.634-7.073,9.444-11.274,13.606
				c-7.879,8.833-17.338,15.97-26.981,22.569c-7.035,4.814-16.423,3.573-21.994-2.568l-0.371-0.411l-37.499-41.249l30.161-8.612
				c-0.933,4.618-1.811,7.983-2.924,11.808c-1.068,3.716-2.274,7.362-3.573,10.986c-2.62,7.236-5.73,14.337-9.365,21.284
				c-3.592,6.959-7.997,13.676-12.925,20.125c-4.962,6.452-10.931,12.388-17.472,17.802c-7.441,6.159-18.466,5.121-24.625-2.32
				c-6.106-7.377-5.138-18.277,2.13-24.466l0.776-0.66c4.11-3.496,8.11-7.326,11.618-11.913c3.478-4.594,6.775-9.504,9.545-14.905
				c2.8-5.363,5.289-11.007,7.398-16.834c1.043-2.915,2.022-5.866,2.871-8.826c0.854-2.835,1.67-6.215,2.121-8.403l0.077-0.375
				c1.952-9.464,11.206-15.555,20.671-13.604c3.772,0.778,7.009,2.718,9.414,5.367l37.499,41.249l-22.364-2.979
				c7.25-5.074,14.407-10.326,20.211-16.933c3.168-3.054,5.654-6.702,8.417-10.114c2.369-3.711,4.992-7.263,6.944-11.26
				c4.23-7.768,7.627-16.11,9.93-24.809l1.587-6.553c0.381-2.207,0.87-4.41,1.186-6.615c0.318-2.208,0.632-4.412,0.807-6.58
				c0.217-2.042,0.315-4.604,0.337-5.804l0.019-1.058c0.173-9.492,8.008-17.047,17.5-16.875c1.719,0.031,3.449,0.343,5.007,0.841
				c7.985,2.598,15.927,5.546,23.413,9.63c7.592,3.839,14.637,8.796,21.261,14.188c6.635,5.417,12.544,11.692,17.846,18.448
				c2.659,3.376,5.084,6.961,7.39,10.656c1.103,1.915,2.232,3.767,3.257,5.801c0.525,0.977,1.04,2.014,1.541,3.096l0.765,1.672
				l0.882,2.125l-23.243-9.955c9.382-4.489,18.306-10.039,26.009-17.562c7.596-7.612,14.37-16.384,20.064-26.146
				c5.557-9.862,10.229-20.45,13.963-31.473c1.881-5.5,3.53-11.123,4.898-16.784c0.742-2.828,1.314-5.662,1.918-8.494
				c0.533-2.728,1.086-5.847,1.38-8.025l0.082-0.602c1.276-9.447,9.969-16.07,19.416-14.794c2.184,0.295,4.27,1.021,6.089,2.026
				c6.893,3.84,13.677,7.894,19.903,12.62c6.325,4.605,12.245,9.672,17.805,15.058c5.593,5.361,10.807,11.061,15.654,17.082
				c2.427,3.008,4.765,6.101,7.028,9.283c1.115,1.62,2.238,3.214,3.321,4.907c1.133,1.743,2.071,3.215,3.419,5.54l-25.498-5.812
				c13.667-9.977,26.287-21.164,36.332-33.838c5.105-6.245,9.621-12.817,13.318-19.608c1.863-3.369,3.617-6.781,4.998-10.227
				c0.761-1.712,1.391-3.422,2.008-5.122l2.472-7.8c3.482-8.642,11.846-14.257,20.688-14.565c2.218-0.115,4.484,0.144,6.667,0.678
				c1.084,0.277,2.157,0.638,3.187,1.054l1.506,0.694l0.738,0.376l0.235,0.144l3.025,1.949l12.068,7.801
				c3.942,2.695,8.177,4.993,11.852,8.014l11.271,8.71c3.688,2.972,7.628,5.649,11.087,8.86l10.517,9.448
				c3.445,3.202,7.114,6.172,10.357,9.558l9.82,10.046c26.103,26.827,48.183,56.813,67.885,87.883
				c4.867,7.813,9.581,15.712,14.191,23.65c4.396,8.075,8.902,16.06,12.982,24.279c8.356,16.332,16.139,32.861,22.738,50.031
				c0.496,1.29-0.148,2.738-1.438,3.233c-1.184,0.455-2.5-0.05-3.092-1.133L3019.588,2092.261z"/>
		</g>
		<g>
			<path style="fill:#F4B823;" d="M2180.625,2655.625c0,0,100,86.25,101.25,152.5s-50.625,33.125-71.25,0c0,0,8.125,65-35,65.625
				s-49.375-66.875-49.375-66.875s3.75,51.259-35,66.879c-38.75,15.621-22.173-124.595,20.476-193.55"/>
		</g>
		<g>
			<path style="fill:#390075;" d="M2854.316,2283.291c-0.296-17.159-0.906-34.634-1.655-51.964
				c-0.774-17.361-1.695-34.73-2.909-52.073c-2.462-34.682-5.641-69.341-11.551-103.638l-0.006-0.032
				c-0.235-1.364,0.68-2.659,2.044-2.894c1.243-0.215,2.431,0.529,2.808,1.695c10.852,33.442,19.043,67.711,26.506,102.058
				c3.717,17.187,7.142,34.429,10.424,51.71c3.261,17.319,6.362,34.528,9.207,52.108c1.548,9.567-4.952,18.577-14.519,20.125
				c-9.567,1.548-18.577-4.952-20.125-14.519c-0.13-0.805-0.204-1.607-0.223-2.4L2854.316,2283.291z"/>
		</g>
		<g>
			<path style="fill:#390075;" d="M2673.127,2334.738c1.375-14.919,2.311-30.467,3.001-45.773
				c0.67-15.369,1.039-30.766,1.066-46.173c-0.082-30.795-1.39-61.653-6.294-92.179l-0.006-0.038
				c-0.22-1.367,0.71-2.653,2.077-2.872c1.231-0.198,2.397,0.539,2.777,1.686c9.884,29.81,16.268,60.75,21.38,91.78
				c2.491,15.533,4.639,31.129,6.48,46.775c1.821,15.71,3.399,31.202,4.514,47.32c0.669,9.676-6.632,18.063-16.308,18.732
				c-9.676,0.669-18.063-6.632-18.732-16.308c-0.064-0.922-0.055-1.833,0.021-2.726L2673.127,2334.738z"/>
		</g>
		<g>
			<path style="fill:#390075;" d="M2450.772,2455.746c2.438-3.514,5.328-8.034,7.833-12.336c2.636-4.324,5.05-8.849,7.547-13.323
				c4.799-9.075,9.359-18.342,13.552-27.807c8.431-18.912,15.59-38.519,21.179-58.625l2.185-7.53l1.822-7.617
				c1.168-5.09,2.521-10.166,3.549-15.299c1.833-10.294,4.044-20.6,5.106-31.055c3.047-20.858,3.473-41.991,3.341-63.226
				l-0.001-0.121c-0.009-1.381,1.104-2.507,2.484-2.516c1.281-0.008,2.344,0.95,2.496,2.191c2.646,21.28,4.747,42.871,4.149,64.536
				c0.162,10.865-0.841,21.658-1.496,32.533c-0.438,5.422-1.207,10.802-1.801,16.222l-0.965,8.126l-1.339,8.064
				c-3.355,21.579-8.409,42.946-14.952,63.948c-3.25,10.51-6.925,20.916-10.93,31.255c-2.115,5.135-4.143,10.302-6.479,15.41
				c-2.293,5.215-4.572,10.025-7.574,15.675c-4.546,8.554-15.166,11.803-23.719,7.258c-8.554-4.546-11.803-15.166-7.258-23.719
				c0.312-0.587,0.652-1.149,1.019-1.685L2450.772,2455.746z"/>
		</g>
		<g>
			<path style="fill:#390075;" d="M2620.463,1997.752c3.575,13.894,6.831,27.594,9.96,41.437
				c3.092,13.823,6.007,27.696,8.388,41.633c0.236,1.382-0.693,2.694-2.075,2.93c-1.072,0.183-2.112-0.354-2.631-1.241
				c-7.03-12.088-14.498-23.874-22.116-35.564c-7.629-11.651-15.455-23.31-23.339-34.603c-5.623-8.054-3.653-19.142,4.402-24.765
				c8.054-5.623,19.141-3.652,24.764,4.401C2619.057,1993.757,2619.946,1995.771,2620.463,1997.752z"/>
		</g>
		<g>
			<path style="fill:#390075;" d="M2757.654,1931.102c5.609,8.26,10.475,16.121,15.421,24.269
				c4.885,8.099,9.639,16.238,14.211,24.468c9.178,16.432,17.757,33.134,25.727,50.048c1.184,2.513,0.107,5.51-2.406,6.694
				c-2.163,1.019-4.686,0.363-6.101-1.443l-0.018-0.025c-11.388-14.518-23.232-28.593-35.512-42.199
				c-6.122-6.815-12.385-13.489-18.715-20.049c-6.291-6.493-12.868-13.122-19.165-18.967c-7.129-6.618-7.544-17.762-0.926-24.891
				c6.618-7.129,17.762-7.544,24.891-0.926C2756.032,1928.983,2756.933,1930.054,2757.654,1931.102z"/>
		</g>
		<g>
			<path style="fill:#390075;" d="M2498.169,2047.31c2.3,5.252,3.814,9.627,5.464,14.409c1.581,4.688,3.014,9.386,4.354,14.089
				c2.672,9.406,4.807,18.909,6.504,28.44c1.737,9.516,2.906,19.11,3.523,28.683c0.767,9.546,0.545,19.151,0.106,28.572
				c-0.065,1.387-1.242,2.459-2.629,2.395c-1.155-0.054-2.092-0.879-2.335-1.955l-0.025-0.112
				c-2.041-9.026-4.253-17.879-7.376-26.461c-2.973-8.598-6.418-16.98-10.337-25.105c-3.877-8.132-8.101-16.057-12.73-23.679
				c-2.317-3.808-4.693-7.556-7.157-11.202c-2.415-3.54-5.132-7.413-7.448-10.192c-6.263-7.518-5.245-18.689,2.273-24.951
				c7.518-6.263,18.688-5.245,24.951,2.273c1.076,1.291,1.937,2.69,2.586,4.153L2498.169,2047.31z"/>
		</g>
		<g>
			<path style="fill:#390075;" d="M2151.015,2642.421c5.902-3.565,12.289-7.975,18.292-12.286c6.067-4.382,12.013-8.96,17.83-13.728
				c11.56-9.595,22.57-19.931,31.902-31.951l0.036-0.046c0.856-1.103,2.445-1.303,3.548-0.447c0.879,0.682,1.183,1.833,0.837,2.83
				c-5.215,14.948-12.803,29.139-21.203,42.706c-4.239,6.765-8.694,13.414-13.361,19.937c-4.746,6.575-9.368,12.803-14.912,19.393
				l-0.193,0.229c-6.315,7.507-17.52,8.473-25.026,2.158c-7.507-6.315-8.473-17.52-2.158-25.027
				C2147.879,2644.678,2149.417,2643.396,2151.015,2642.421z"/>
		</g>
		<g>
			<path style="fill:#F4B823;" d="M2340.625,2218.7c0,0,47.3,174.4-191.65,341.3l3.301-35c0,0-46.25,58.35-152.25,86.65
				c-106.05-28.3-152.3-86.65-152.3-86.65l3.301,35c-238.95-166.9-191.65-341.3-191.65-341.3l-27.5,36.3
				c20.55-172.2,80.6-261.7,139.85-308.1c2.1-1.65,4.25-3.2,6.35-4.8c2.15-1.55,4.3-3.099,6.45-4.6c0.75-0.55,1.5-1.05,2.2-1.5
				c132.3-91.15,309.8-78.75,421.1-3.55c0.25,0.15,0.551,0.3,0.8,0.5c65.1,41.5,136.7,130.75,159.5,322.05L2340.625,2218.7z"/>
		</g>
		<g>
			<path style="fill:#F4B823;" d="M2000,1845c-538.958-43.333-480.182-575.171-332.531-675c0,0-33.094,55.833,13.572,69.167
				c46.667,13.333,82.537-72.5,101.685-146.667s74.148-171.667,139.982-200c0,0-38.333,164.167,25,159.167
				S2043.542,885,2154.375,872.5c0,0-80.833,229.167,29.167,281.667s91.667-60,91.667-60
				C2477.708,1221.667,2587.708,1836.667,2000,1845z"/>
		</g>
		<g>
			<path style="fill:#390075;" d="M2085.582,2892.46c-8.301,0-15.964-3.56-21.714-10.386
				c-27.166-32.251-3.887-151.475,32.976-211.074c5.085-8.218,15.867-10.757,24.089-5.679c8.218,5.083,10.762,15.869,5.676,24.087
				c-32.891,53.179-45.547,142.28-37.866,166.128c21.987-12.788,20.071-47.1,20.049-47.466c-0.61-9.546,6.558-17.856,16.096-18.604
				c9.504-0.713,17.908,6.265,18.787,15.796c0.046,0.469,5.684,50.991,31.411,50.991c0.095,0,0.19,0,0.286-0.005
				c6.047-0.088,8.721-2.222,10.54-4.302c8.201-9.38,8.489-32.144,7.344-41.694c-0.977-8.145,3.833-15.894,11.57-18.613
				c7.739-2.725,16.321,0.269,20.657,7.236c11.528,18.516,29.788,30.166,35.742,30.034c0.798-1.187,3.423-6.206,3.154-20.454
				c-0.901-47.832-69.019-116.978-95.188-139.585c-7.312-6.318-8.123-17.363-1.809-24.678c6.311-7.324,17.356-8.14,24.675-1.821
				c10.84,9.351,105.957,93.433,107.317,165.42c0.718,38.14-14.731,50.762-27.82,54.639c-15.623,4.619-32.219-2.202-46.379-12.925
				c-2.441,9.038-6.431,18.027-12.832,25.386c-9.124,10.488-21.733,16.143-36.462,16.357c-21.694,0.19-36.98-10.703-47.512-25.713
				c-6.814,9.927-16.582,18.809-30.574,24.448C2093.67,2891.645,2089.554,2892.46,2085.582,2892.46z"/>
		</g>
		<g>
			<path style="fill:#390075;" d="M1997.301,2716.308c-83.181,0.005-140.903-28.906-161.599-41.133
				c-25.72,9.248-50.222,8.311-72.952-2.832c-49.766-24.414-74.597-92.021-82.515-117.988
				c-62.512-17.095-103.838-38.364-128.572-54.258c1.428,48.862,10.273,66.738,11.748,69.39c5.11,5.664,5.452,13.472,1.514,20.073
				c-4.009,6.729-12.515,9.355-20.068,7.349c-118.411-31.646-180.823-100.244-212.327-152.217c-1.311-2.163-2.581-4.316-3.811-6.455
				c8.125,69.604,28.342,101.709,28.628,102.148c3.94,6.079,3.76,14.004-0.5,19.858c-4.26,5.859-11.66,8.516-18.655,6.66
				c-89.041-23.892-156.738-81.909-195.772-167.788c-1.392-3.057-2.717-6.094-3.992-9.111
				c5.186,93.525,35.855,150.786,36.274,151.553c3.289,5.996,2.788,13.379-1.294,18.872c-4.085,5.493-10.969,8.101-17.676,6.689
				c-102.949-21.904-172.588-90.381-201.387-198.022c-6.738-25.181-10.483-49.624-12.441-71.362
				c-25.137,85.825-7.373,164.78-7.139,165.791c1.672,7.153-1.309,14.595-7.458,18.618c-6.147,4.028-14.158,3.784-20.049-0.62
				c-79.851-59.59-112.383-161.934-94.08-295.967c13.896-101.743,55.129-206.394,89.087-270.408
				c47.852-90.286,26.472-125.037,24.197-128.298c-5.466-5.093-6.619-12.681-3.525-19.531c3.147-6.958,10.935-10.608,18.511-9.697
				c43.521,5.193,68.31,31.919,81.013,58.078c49.531-58.911,149.58-130.378,226.399-147.769
				c69.267-15.688,80.549-44.438,81.619-47.72c0.745-7.361,5.996-12.822,13.235-14.565c7.361-1.77,14.937,2.078,18.909,8.518
				c24.988,40.535,31.064,73.164,18.064,96.985c-8.813,16.143-24.18,23.975-36.836,27.773c3.42,5.203,9.392,12.097,19.294,20.557
				c63.638,54.346,206.973,111.021,304.898,120.769c-141.292-68.393-270.854-211.238-323.953-364.521
				c-2.163-6.24-0.625-13.169,3.975-17.91c4.597-4.744,11.472-6.484,17.781-4.521l14.841,4.639
				c-34.678-73.162-48.438-190.156-1.623-253.352c4.495-6.069,12.368-8.572,19.548-6.201c7.17,2.368,12.014,9.067,12.014,16.619
				c0.002,0.547,0.681,58.735,35.185,66.699c1.738,0.403,2.141,0.142,2.498-0.088c9.761-6.213,18.047-45.073,24.702-76.299
				c0.513-2.4,1.03-4.827,1.555-7.275c-9.27-15.486-31.072-56.689-38.149-111.872c-8.23-64.17,2.617-159.89,101.038-251.477
				c171.843-159.91,334.158-310.952,388.403-434.236c2.542-5.774,7.993-9.734,14.27-10.364c6.282-0.647,12.407,2.165,16.045,7.319
				c3.667,5.195,83.508,121.013,27.72,262.671c27.165-5.986,70.105-19.004,118.96-46.948
				c76.594-43.811,183.943-134.436,260.376-317.376c2.783-6.667,9.319-10.864,16.599-10.749c7.222,0.188,13.586,4.792,16.023,11.592
				c3.491,9.744,82.485,235.842-13.65,444.922c32.468,16.548,119.009,48.699,194.656-28.748c4.619-4.724,11.504-6.458,17.808-4.453
				c6.301,1.997,10.938,7.375,11.99,13.899c0.239,1.497,21.411,142.925-98.831,219.961c15.874,11.904,44.141,23.113,81.921-1.789
				c5.723-3.772,13.113-3.853,18.921-0.22c5.806,3.638,8.955,10.327,8.062,17.119c-5.764,43.733-34.851,90.794-72.38,117.1
				c-15.752,11.042-31.953,17.859-47.959,20.293c14.924,37.2,23.459,77.195,30.586,110.598
				c6.667,31.238,14.963,70.117,24.727,76.333c0.359,0.229,0.769,0.486,2.49,0.088c34.504-7.964,35.183-66.152,35.186-66.741
				c0.037-7.537,4.893-14.224,12.056-16.57c7.156-2.346,15.022,0.139,19.507,6.194c46.812,63.198,33.054,180.191-1.624,253.352
				l14.841-4.639c6.309-1.963,13.184-0.222,17.781,4.521c4.6,4.741,6.138,11.67,3.975,17.91
				c-53.101,153.284-182.664,296.13-323.953,364.521c97.925-9.741,241.255-66.421,304.897-120.769
				c9.902-8.459,15.874-15.354,19.294-20.557c-12.656-3.799-28.022-11.631-36.836-27.773c-13-23.821-6.924-56.45,18.064-96.985
				c3.972-6.44,11.558-10.288,18.909-8.518c7.239,1.743,12.49,7.205,13.235,14.565c1.069,3.281,12.351,32.031,81.619,47.72
				c76.819,17.39,176.868,88.858,226.399,147.769c12.703-26.16,37.493-52.886,81.013-58.078c7.561-0.913,15.364,2.739,18.511,9.697
				c3.093,6.851,1.941,14.438-3.525,19.531c-2.275,3.262-23.655,38.013,24.199,128.303c33.955,64.009,75.188,168.66,89.084,270.403
				c18.303,134.033-14.229,236.377-94.08,295.967c-5.891,4.404-13.899,4.644-20.049,0.62s-9.131-11.465-7.458-18.618
				c0.41-1.816,17.659-80.469-7.151-165.64c-1.963,21.699-5.706,46.089-12.429,71.211
				c-28.799,107.642-98.438,176.118-201.387,198.022c-6.694,1.411-13.625-1.191-17.708-6.704c-4.08-5.513-4.565-12.896-1.245-18.892
				c0.408-0.742,31.072-57.998,36.257-151.519c-1.272,3.018-2.6,6.055-3.992,9.111c-39.033,85.879-106.731,143.896-195.771,167.788
				c-7.036,1.875-14.507-0.781-18.752-6.704c-4.248-5.918-4.382-13.848-0.339-19.912c0.239-0.371,20.444-32.456,28.564-102.051
				c-1.23,2.139-2.498,4.287-3.811,6.455c-31.504,51.973-93.916,120.571-212.327,152.217c-7.559,2.002-16.06-0.62-20.068-7.349
				c-3.938-6.602-3.596-14.409,1.514-20.073c1.475-2.651,10.32-20.527,11.748-69.39c-24.734,15.894-66.062,37.163-128.572,54.258
				c-7.92,25.967-32.754,93.545-82.51,117.964c-22.727,11.157-47.224,12.114-72.954,2.852
				c-20.911,12.363-79.575,41.777-164.277,41.128C1999.117,2716.308,1998.201,2716.308,1997.301,2716.308z M1994.376,2681.249h11.25
				c0.369,0,0.732,0.01,1.096,0.034c89.204-1.133,145.154-39.59,145.723-39.99c5.034-3.525,11.587-4.185,17.209-1.675
				c19.294,8.608,36.345,9.038,52.129,1.304c38.264-18.73,61.226-82.202,66.843-105.078c1.538-6.26,6.396-11.187,12.642-12.793
				c109.265-28.101,151.416-69.849,151.829-70.269c4.907-4.971,12.334-6.577,18.84-4.053c6.506,2.534,10.923,8.652,11.177,15.63
				c1.494,40.903-1.201,69.331-5.017,88.76c174.053-62.495,194.333-213.423,195.151-220.181c1.086-8.97,8.816-15.718,17.847-15.41
				c9.028,0.244,16.392,7.295,16.992,16.309c6.011,90.156-6.758,151.138-18.777,186.807
				c154.832-64.932,165.105-238.574,165.486-246.465c0.43-8.921,7.512-16.099,16.428-16.636c8.918-0.464,16.807,5.718,18.303,14.521
				c19.805,116.411-1.819,205.068-18.398,251.177c71.003-25.498,118.181-79.927,140.459-162.236
				c19.761-72.998,11.75-141.543,11.667-142.227c-0.986-8.11,3.772-15.835,11.462-18.594c7.693-2.759,16.27,0.166,20.662,7.056
				c48.994,76.812,53.792,161.318,50.564,213.633c104.807-128.306,24.099-370.132-39.126-489.324
				c-31.88-60.146-37.322-101.575-34.397-128.367c-27.014,18.149-30.84,51.697-31.028,53.518
				c-0.786,7.627-6.448,13.899-13.962,15.41c-7.534,1.519-15.146-2.002-18.818-8.733c-26.487-48.557-140.298-142.092-225.2-161.311
				c-47.937-10.857-74.756-28.191-89.729-43.609c-6.416,15.676-7.805,28.184-3.696,35.828c6.563,12.207,27.522,13.213,27.732,13.218
				c8.11,0.259,15.095,6.062,16.709,14.014c4.053,19.968-7.344,41.094-34.844,64.578
				c-70.754,60.425-244.097,130.435-355.247,130.442c-21.58,0.002-40.796-2.634-56.484-8.494c-7.078-2.644-11.66-9.531-11.362-17.08
				c0.295-7.551,5.405-14.058,12.668-16.138c147.424-42.214,294.282-181.001,360.845-337.315l-25.408,7.942
				c-7.493,2.332-15.635-0.596-19.905-7.188c-4.272-6.592-3.628-15.22,1.572-21.106c34.683-39.246,60.144-136.018,45.906-205.261
				c-8.813,19.47-23.987,37.874-50.107,43.901c-10.479,2.417-20.562,0.806-29.155-4.665c-22.139-14.092-29.7-49.519-40.161-98.555
				c-8.831-41.387-18.84-88.296-39.314-127.893c-3.118-6.03-2.468-13.318,1.67-18.701c4.133-5.381,11.006-7.883,17.642-6.426
				c19.99,4.4,39.048-5.093,51.514-13.833c19.819-13.892,37.039-35.696,47.576-58.833c-51.365,13.979-90.796-16.221-106.672-38.342
				c-2.971-4.138-3.992-9.365-2.793-14.316c1.196-4.951,4.495-9.136,9.026-11.46c83.14-42.612,99.827-117.148,101.946-160.752
				c-36.196,26.248-73.376,34.956-106.765,34.958c-65.298,0.007-116.118-33.291-116.951-33.85
				c-7.322-4.917-9.844-14.512-5.881-22.393c73.606-146.404,49.915-309.597,31.782-386.951
				c-78.828,163.601-181.846,248.132-257.212,290.813c-89.724,50.813-160.025,55.21-162.974,55.371
				c-6.309,0.293-12.283-2.715-15.686-8.015c-3.403-5.3-3.699-12.021-0.767-17.598c51.75-98.496,24.285-186.614,3.977-229.47
				c-67.505,123.176-220.405,265.454-381.565,415.42c-166.384,154.831-58.369,317.688-53.689,324.546
				c2.707,3.967,3.686,8.909,2.668,13.603c-1.04,4.797-2.048,9.522-3.035,14.151c-10.449,49.018-18,84.434-40.137,98.528
				c-8.599,5.471-18.687,7.085-29.167,4.663c-26.121-6.028-41.294-24.431-50.105-43.901
				c-14.241,69.243,11.223,166.016,45.906,205.261c5.2,5.886,5.845,14.514,1.572,21.106s-12.419,9.517-19.905,7.188l-25.408-7.942
				c66.56,156.313,213.418,295.1,360.845,337.315c7.263,2.08,12.373,8.586,12.668,16.138c0.298,7.549-4.285,14.436-11.362,17.08
				c-96.482,36.038-327.239-49.79-411.731-121.948c-27.5-23.484-38.896-44.609-34.844-64.578c1.631-8.035,8.621-13.86,16.819-14.016
				c0.1-0.002,21.059-1.008,27.622-13.215c4.109-7.644,2.72-20.151-3.696-35.825c-14.973,15.415-41.792,32.749-89.729,43.606
				c-84.902,19.219-198.713,112.754-225.2,161.311c-3.691,6.763-11.379,10.313-18.899,8.76c-7.539-1.555-13.179-7.854-13.889-15.522
				c-0.183-1.755-4.006-35.288-31.02-53.433c2.925,26.792-2.517,68.218-34.395,128.362
				c-63.228,119.197-143.936,361.023-39.128,489.329c-3.228-52.314,1.57-136.821,50.564-213.633
				c4.395-6.899,12.976-9.844,20.676-7.056c7.695,2.769,12.446,10.493,11.445,18.608c-0.081,0.669-8.091,69.214,11.67,142.212
				c22.278,82.31,69.456,136.738,140.459,162.236c-16.58-46.108-38.203-134.766-18.399-251.177
				c1.502-8.813,9.412-15.127,18.328-14.531c8.923,0.547,15.999,7.739,16.406,16.67c0.378,7.866,10.652,181.509,165.483,246.44
				c-12.019-35.669-24.788-96.65-18.777-186.807c0.6-9.028,7.986-16.113,17.034-16.333c9.041-0.327,16.77,6.489,17.81,15.479
				c0.813,6.719,21.094,157.642,195.146,220.137c-3.816-19.429-6.511-47.856-5.017-88.76c0.256-7.017,4.68-13.198,11.24-15.708
				c6.553-2.51,13.977-0.854,18.85,4.209c0.339,0.342,42.49,42.09,151.755,70.19c6.257,1.606,11.118,6.533,12.646,12.813
				c5.613,22.866,28.574,86.357,66.838,105.083c15.779,7.72,32.827,7.285,52.122-1.328c5.645-2.515,12.204-1.875,17.251,1.704
				c0.527,0.366,56.524,38.809,145.698,39.961C1993.648,2681.259,1994.01,2681.249,1994.376,2681.249z M2436.866,2569.184v0.005
				C2436.866,2569.189,2436.866,2569.189,2436.866,2569.184z M1563.135,2569.184c0,0.005,0,0.005,0,0.005V2569.184z
				 M3073.724,1786.596v0.002V1786.596z M926.278,1786.596v0.002V1786.596z M2669.429,1619.906L2669.429,1619.906L2669.429,1619.906
				z M1330.572,1619.906L1330.572,1619.906L1330.572,1619.906z"/>
		</g>
		<g>
			<path style="fill:#390075;" d="M1533.246,1117.798c-7.192,19.395-11.905,39.382-15.385,59.532
				c-3.473,20.171-5.664,40.524-7.584,61.135c-0.903,9.694-9.494,16.821-19.188,15.918c-9.694-0.903-16.821-9.494-15.918-19.188
				c0.131-1.406,0.424-2.759,0.858-4.041l0.046-0.12c6.88-19.896,14.134-39.951,22.639-59.482
				c8.502-19.515,18.254-38.578,30.091-56.05c0.78-1.151,2.345-1.452,3.496-0.672
				C1533.28,1115.494,1533.64,1116.736,1533.246,1117.798z"/>
		</g>
		<g>
			<path style="fill:#390075;" d="M2454.011,1125.769l-26.772-72.802c-0.486-1.321,0.191-2.785,1.512-3.271
				c0.999-0.367,2.081-0.068,2.759,0.67l52.395,57.198c6.654,7.264,6.159,18.547-1.105,25.201c-7.264,6.654-18.547,6.159-25.2-1.105
				C2456.003,1129.918,2454.79,1127.855,2454.011,1125.769z"/>
		</g>
		<g>
			<path style="fill:#FD8201;" d="M2000,1880c204.375-161.25,216.875-252.5,125.625-311.25S2000,1485,2000,1485
				s-34.375,25-125.625,83.75S1795.625,1718.75,2000,1880z"/>
		</g>
		<g style="opacity:0.25;">
			<path style="fill:#390075;" d="M1999.975,1880c-160.6-126.7-202.7-210.2-169.1-268.65c17.95,41,59.15,90.1,128.9,149.6
				c23.149,19.7,57.3,19.7,80.449,0c69.75-59.5,110.95-108.6,128.9-149.6C2202.725,1669.8,2160.575,1753.3,1999.975,1880z"/>
		</g>
		<g>
			<path style="fill:#390075;" d="M2000.001,1897.499c-3.831,0-7.661-1.255-10.84-3.762
				c-130.337-102.834-189.57-181.348-186.414-247.09c1.729-36.013,22.642-67.173,62.156-92.612
				c89.57-57.668,124.465-82.942,124.807-83.191c6.133-4.458,14.448-4.458,20.581,0c0.342,0.249,35.237,25.522,124.807,83.191
				c39.514,25.439,60.427,56.599,62.156,92.612c3.157,65.742-56.077,144.255-186.414,247.09
				C2007.662,1896.244,2003.831,1897.499,2000.001,1897.499z M2000.001,1506.43c-16.06,11.199-52.031,35.752-116.152,77.034
				c-29.875,19.236-44.968,40.452-46.143,64.863c-2.417,50.374,52.166,120.754,162.295,209.302
				c110.129-88.547,164.712-158.928,162.295-209.302c-1.174-24.412-16.267-45.627-46.143-64.863
				C2052.032,1542.182,2016.06,1517.629,2000.001,1506.43z"/>
		</g>
		<g>
			<path style="fill:#FFFFFF;" d="M1771.725,1620.7c0.65,12.3-7.9,23.25-20.05,25.6c-32.75,6.3-81.4,8.95-114.05,1.5
				c-7.3-1.7-13.75-3.85-19.1-6.55c-35-17.9-80.801-82.1-108.301-145.4c-17.65-40.699,17.55-70.699,45.05-86.949
				c13.101-7.75,28.051-11.15,42.9-10.05c6.9,0.55,13.8,2.05,20.5,4.5C1690.975,1430.25,1766.475,1515.6,1771.725,1620.7z"/>
			<path style="fill:#390075;" d="M1771.725,1620.7c0.65,12.3-7.9,23.25-20.05,25.6c-32.75,6.3-81.4,8.95-114.05,1.5
				c-25.7-17.35-47.451-44.301-60.7-77.55c12.95,1.65,25.05-4.351,29.05-15.25c4.9-13.15-3.9-28.5-19.6-34.35
				c-7.6-2.8-15.45-2.85-22.05-0.6c-5.25-47.1,7.8-91.45,33.85-121.2c6.9,0.55,13.8,2.05,20.5,4.5
				C1690.975,1430.25,1766.475,1515.6,1771.725,1620.7z"/>
			<ellipse style="fill:#FFFFFF;" cx="1691.25" cy="1538.958" rx="42.708" ry="53.958"/>
			<defs>
				<filter id="Adobe_OpacityMaskFilter" filterUnits="userSpaceOnUse" x="1617.375" y="1574.5" width="122.25" height="74.65">
					<feFlood  style="flood-color:white;flood-opacity:1" result="back"/>
					<feBlend  in="SourceGraphic" in2="back" mode="normal"/>
				</filter>
			</defs>
			
				<mask maskUnits="userSpaceOnUse" x="1617.375" y="1574.5" width="122.25" height="74.65" id="SVGID_00000018959015739747382520000000989502534555426945_">
				<g style="filter:url(#Adobe_OpacityMaskFilter);">
					<defs>
						
							<filter id="Adobe_OpacityMaskFilter_00000070817127575973623200000010002414703215849615_" filterUnits="userSpaceOnUse" x="1617.375" y="1574.5" width="122.25" height="74.65">
							<feFlood  style="flood-color:white;flood-opacity:1" result="back"/>
							<feBlend  in="SourceGraphic" in2="back" mode="normal"/>
						</filter>
					</defs>
					
						<mask maskUnits="userSpaceOnUse" x="1617.375" y="1574.5" width="122.25" height="74.65" id="SVGID_00000018959015739747382520000000989502534555426945_">
						<g style="filter:url(#Adobe_OpacityMaskFilter_00000070817127575973623200000010002414703215849615_);">
						</g>
					</mask>
					
						<linearGradient id="SVGID_00000134226188179128072700000001803430719277181106_" gradientUnits="userSpaceOnUse" x1="1679.809" y1="1550.1365" x2="1678.1423" y2="1636.8029">
						<stop  offset="0" style="stop-color:#FFFFFF"/>
						<stop  offset="1" style="stop-color:#000000"/>
					</linearGradient>
					
						<path style="mask:url(#SVGID_00000018959015739747382520000000989502534555426945_);fill:url(#SVGID_00000134226188179128072700000001803430719277181106_);" d="
						M1739.625,1634.5c0,2.25-0.15,4.501-0.4,6.7c-4.7,2.25-9.6,4.05-14.7,5.35c-6.75,1.699-13.7,2.599-20.7,2.599
						c-32,0-63.6-18.2-86.45-47.75c11.95-16.2,32.401-26.901,55.6-26.901C1709.775,1574.5,1739.625,1601.35,1739.625,1634.5z"/>
				</g>
			</mask>
			
				<linearGradient id="SVGID_00000139291644665826917930000002323299547171660432_" gradientUnits="userSpaceOnUse" x1="1679.809" y1="1550.1365" x2="1678.1423" y2="1636.8029">
				<stop  offset="0" style="stop-color:#FFFFFF"/>
				<stop  offset="1" style="stop-color:#F0F1F1"/>
			</linearGradient>
			<path style="opacity:0.7;fill:url(#SVGID_00000139291644665826917930000002323299547171660432_);" d="M1739.625,1634.5
				c0,2.25-0.15,4.501-0.4,6.7c-4.7,2.25-9.6,4.05-14.7,5.35c-6.75,1.699-13.7,2.599-20.7,2.599c-32,0-63.6-18.2-86.45-47.75
				c11.95-16.2,32.401-26.901,55.6-26.901C1709.775,1574.5,1739.625,1601.35,1739.625,1634.5z"/>
			<path style="fill:#390075;" d="M1767.228,1620.904c-3.754-32.818-13.572-64.781-30.272-92.709l-6.223-10.435l-6.942-9.959
				c-2.213-3.37-4.759-6.511-7.31-9.635c-2.575-3.102-4.927-6.358-7.656-9.314c-10.612-12.078-22.302-23.018-34.601-32.953
				c-12.459-9.825-26.094-17.524-39.162-25.61l-10.26-5.201l-10.519-4.302c-3.515-1.478-6.223-2.189-9.479-2.88
				c-3.13-0.663-6.312-1.065-9.499-1.144c-6.374-0.207-12.732,0.804-18.708,2.766c-2.975,1.025-5.892,2.213-8.644,3.72
				c-2.511,1.366-5.858,3.514-8.987,5.614c-12.401,8.333-23.549,18.21-29.66,28.556c-6.124,10.385-7.149,19.906-2.807,32.065
				c5.757,15.123,11.788,30.322,18.074,45.598c6.287,15.272,12.99,30.574,20.887,45.328c7.804,14.802,17.037,28.968,28.52,41.22
				l4.348,4.561l4.699,4.189c3.081,2.864,6.555,5.269,10.043,7.6c6.941,4.852,15.143,7.433,23.288,9.355
				c16.411,3.79,33.356,4.622,50.132,4.155c16.802-0.264,33.537-2.316,50.015-5.136c4.116-0.741,8.214-1.555,12.273-2.503
				c4.159-0.816,7.324-2.042,10.29-4.339C1764.891,1635.118,1767.977,1627.774,1767.228,1620.904z M1776.265,1620.448
				c0.199,10.012-5.122,19.649-13.283,24.736c-3.913,2.641-9.006,3.979-13.151,4.385c-4.216,0.612-8.441,1.065-12.656,1.538
				c-16.882,1.731-33.806,2.252-50.682,1.995c-8.44-0.097-16.867-0.705-25.254-1.518c-8.396-0.739-16.746-2.06-24.938-4.02
				c-8.19-1.944-16.194-4.914-23.313-9.459c-7.073-4.551-13.933-9.528-20.32-15.097c-12.977-10.925-25.16-22.946-37.186-35.334
				c-11.909-12.484-23.335-25.622-33.734-39.6c-10.382-13.984-19.576-28.879-27.265-44.634c-4.361-9.357-7.536-20.733-7.253-32.374
				c0.164-11.695,3.939-23.042,9.169-32.487c10.835-19.013,26.397-31.326,41.95-41.395c3.932-2.478,7.754-4.771,12.724-7.265
				c4.741-2.342,9.71-4.187,14.76-5.684c10.13-2.922,20.723-4.085,31.166-3.438c5.226,0.255,10.419,1.006,15.501,2.181
				c2.556,0.534,5.049,1.307,7.55,2.036c2.442,0.847,5.041,1.701,7.031,2.63l12.751,5.516l12.156,6.437
				c16.296,8.401,30.14,20.418,43.075,32.721C1746.071,1482.561,1775.433,1551.657,1776.265,1620.448z"/>
		</g>
		<g>
			<path style="fill:#FFFFFF;" d="M2235.018,1620.7c-0.65,12.3,7.9,23.25,20.05,25.6c32.75,6.3,81.4,8.95,114.05,1.5
				c7.3-1.7,13.75-3.85,19.1-6.55c35-17.9,80.801-82.1,108.301-145.4c17.65-40.699-17.55-70.699-45.05-86.949
				c-13.101-7.75-28.051-11.15-42.9-10.05c-6.9,0.55-13.8,2.05-20.5,4.5C2315.767,1430.25,2240.268,1515.6,2235.018,1620.7z"/>
			<path style="fill:#390075;" d="M2235.018,1620.7c-0.65,12.3,7.9,23.25,20.05,25.6c32.75,6.3,81.4,8.95,114.05,1.5
				c25.7-17.35,47.451-44.301,60.7-77.55c-12.95,1.65-25.05-4.351-29.05-15.25c-4.9-13.15,3.9-28.5,19.6-34.35
				c7.6-2.8,15.45-2.85,22.05-0.6c5.25-47.1-7.8-91.45-33.85-121.2c-6.9,0.55-13.8,2.05-20.5,4.5
				C2315.767,1430.25,2240.268,1515.6,2235.018,1620.7z"/>
			<ellipse style="fill:#FFFFFF;" cx="2315.492" cy="1538.958" rx="42.708" ry="53.958"/>
			<defs>
				
					<filter id="Adobe_OpacityMaskFilter_00000029032536124169131920000007155053360764894893_" filterUnits="userSpaceOnUse" x="2267.117" y="1574.5" width="122.25" height="74.65">
					<feFlood  style="flood-color:white;flood-opacity:1" result="back"/>
					<feBlend  in="SourceGraphic" in2="back" mode="normal"/>
				</filter>
			</defs>
			
				<mask maskUnits="userSpaceOnUse" x="2267.117" y="1574.5" width="122.25" height="74.65" id="SVGID_00000039104706280224195730000004536396201564480140_">
				<g style="filter:url(#Adobe_OpacityMaskFilter_00000029032536124169131920000007155053360764894893_);">
					<defs>
						
							<filter id="Adobe_OpacityMaskFilter_00000010295677642069810530000009295614142528251826_" filterUnits="userSpaceOnUse" x="2267.117" y="1574.5" width="122.25" height="74.65">
							<feFlood  style="flood-color:white;flood-opacity:1" result="back"/>
							<feBlend  in="SourceGraphic" in2="back" mode="normal"/>
						</filter>
					</defs>
					
						<mask maskUnits="userSpaceOnUse" x="2267.117" y="1574.5" width="122.25" height="74.65" id="SVGID_00000039104706280224195730000004536396201564480140_">
						<g style="filter:url(#Adobe_OpacityMaskFilter_00000010295677642069810530000009295614142528251826_);">
						</g>
					</mask>
					
						<linearGradient id="SVGID_00000027605569019793314070000011457748387368126655_" gradientUnits="userSpaceOnUse" x1="2350.7634" y1="1550.1365" x2="2349.0969" y2="1636.8029" gradientTransform="matrix(-1 0 0 1 4677.6968 0)">
						<stop  offset="0" style="stop-color:#FFFFFF"/>
						<stop  offset="1" style="stop-color:#000000"/>
					</linearGradient>
					
						<path style="mask:url(#SVGID_00000039104706280224195730000004536396201564480140_);fill:url(#SVGID_00000027605569019793314070000011457748387368126655_);" d="
						M2267.117,1634.5c0,2.25,0.15,4.501,0.4,6.7c4.7,2.25,9.6,4.05,14.7,5.35c6.75,1.699,13.7,2.599,20.7,2.599
						c32,0,63.6-18.2,86.45-47.75c-11.95-16.2-32.401-26.901-55.6-26.901C2296.967,1574.5,2267.117,1601.35,2267.117,1634.5z"/>
				</g>
			</mask>
			
				<linearGradient id="SVGID_00000003090502132140079080000008518518416521495465_" gradientUnits="userSpaceOnUse" x1="2350.7634" y1="1550.1365" x2="2349.0969" y2="1636.8029" gradientTransform="matrix(-1 0 0 1 4677.6968 0)">
				<stop  offset="0" style="stop-color:#FFFFFF"/>
				<stop  offset="1" style="stop-color:#F0F1F1"/>
			</linearGradient>
			<path style="opacity:0.7;fill:url(#SVGID_00000003090502132140079080000008518518416521495465_);" d="M2267.117,1634.5
				c0,2.25,0.15,4.501,0.4,6.7c4.7,2.25,9.6,4.05,14.7,5.35c6.75,1.699,13.7,2.599,20.7,2.599c32,0,63.6-18.2,86.45-47.75
				c-11.95-16.2-32.401-26.901-55.6-26.901C2296.967,1574.5,2267.117,1601.35,2267.117,1634.5z"/>
			<path style="fill:#390075;" d="M2230.477,1620.448c0.832-68.791,30.194-137.887,81.201-188.13
				c12.936-12.303,26.779-24.32,43.075-32.721l12.156-6.437l12.75-5.516c1.99-0.929,4.59-1.784,7.031-2.63
				c2.501-0.729,4.993-1.502,7.549-2.036c5.082-1.175,10.276-1.927,15.502-2.181c10.442-0.647,21.036,0.516,31.166,3.438
				c5.051,1.497,10.019,3.342,14.76,5.684c4.97,2.494,8.792,4.787,12.724,7.265c15.553,10.069,31.115,22.382,41.95,41.395
				c5.23,9.445,9.005,20.792,9.168,32.487c0.282,11.642-2.893,23.017-7.253,32.374c-7.689,15.755-16.883,30.651-27.265,44.634
				c-10.398,13.977-21.825,27.116-33.734,39.6c-12.026,12.388-24.208,24.409-37.186,35.334c-6.387,5.568-13.246,10.546-20.32,15.097
				c-7.119,4.546-15.123,7.516-23.313,9.459c-8.192,1.96-16.542,3.281-24.938,4.02c-8.387,0.813-16.813,1.42-25.254,1.518
				c-16.876,0.257-33.8-0.264-50.681-1.995c-4.216-0.473-8.441-0.926-12.656-1.538c-4.145-0.406-9.238-1.744-13.151-4.385
				C2235.6,1640.097,2230.278,1630.46,2230.477,1620.448z M2239.514,1620.904c-0.749,6.871,2.337,14.214,8.16,18.605
				c2.967,2.297,6.132,3.524,10.29,4.339c4.059,0.948,8.157,1.762,12.273,2.503c16.477,2.82,33.213,4.872,50.015,5.136
				c16.776,0.467,33.721-0.365,50.132-4.155c8.145-1.922,16.347-4.503,23.288-9.355c3.489-2.331,6.962-4.736,10.043-7.6l4.699-4.189
				l4.348-4.561c11.483-12.252,20.716-26.418,28.52-41.22c7.897-14.754,14.6-30.056,20.887-45.328
				c6.286-15.276,12.317-30.475,18.074-45.598c4.342-12.159,3.317-21.68-2.807-32.065c-6.11-10.346-17.258-20.223-29.659-28.556
				c-3.129-2.1-6.476-4.247-8.987-5.614c-2.752-1.507-5.669-2.695-8.644-3.72c-5.976-1.962-12.334-2.973-18.708-2.766
				c-3.187,0.079-6.369,0.481-9.499,1.144c-3.256,0.69-5.964,1.402-9.479,2.88l-10.52,4.302l-10.26,5.201
				c-13.068,8.087-26.702,15.786-39.162,25.61c-12.299,9.935-23.989,20.875-34.601,32.953c-2.729,2.956-5.08,6.212-7.656,9.314
				c-2.55,3.124-5.097,6.265-7.31,9.635l-6.942,9.959l-6.223,10.435C2253.086,1556.123,2243.268,1588.086,2239.514,1620.904z"/>
		</g>
		<g>
			<path style="fill:#390075;" d="M2108.043,2980.024c-8.433,0-33.115-3.315-54.333-38.984
				c-10.796,13.936-26.714,27.773-48.652,31.245c-0.903,0.142-1.819,0.215-2.734,0.215h-2.322c-0.916,0-1.831-0.073-2.734-0.215
				c-21.939-3.472-37.856-17.31-48.652-31.245c-24.268,40.801-53.052,39.302-56.907,38.862c-0.979-0.103-1.948-0.288-2.896-0.552
				c-42.559-11.948-59.399-61.089-65.535-88.071c-3.045-0.088-6.04-0.449-8.987-1.084c-8.074,23.408-24.5,60.049-51.821,75.532
				c-14.048,7.959-29.651,9.604-45.134,4.712c-53.281-16.787-53.513-104.434-49.514-151.899
				c-14.409,0.347-23.152-7.139-27.781-12.905c-31.87-39.712,17.173-158.77,64.524-216.592c6.125-7.476,17.151-8.564,24.629-2.451
				c7.476,6.123,8.574,17.148,2.451,24.629c-53.875,65.786-75.227,159.282-64.521,172.266c0.999,0.093,4.91,0.039,13.108-4.106
				c5.835-2.949,12.827-2.402,18.135,1.431c5.303,3.828,8.03,10.293,7.07,16.763c-7.563,51.021-5.669,130.635,22.419,139.487
				c6.304,1.987,11.653,1.445,17.334-1.772c22.09-12.485,37.446-58.403,41.084-73.501c1.399-5.811,5.669-10.513,11.318-12.456
				c5.654-1.943,11.904-0.884,16.585,2.837c5.532,4.395,10.654,5.215,17.678,2.817c5.029-1.719,10.559-1.05,15.036,1.797
				c4.48,2.847,7.424,7.573,8.005,12.852c2.014,17.769,13.22,64.805,40.762,75.161c4.722-1.167,21.004-8.042,34.661-47.959
				c2.417-7.061,9.045-11.816,16.509-11.836c0.017,0,0.032,0,0.049,0c7.444,0,14.077,4.712,16.526,11.743
				c3.545,9.951,17.134,36.235,37.766,40.679c24.771-5.283,37.627-40.317,37.754-40.679c2.449-7.031,9.082-11.743,16.526-11.743
				c0.017,0,0.032,0,0.049,0c7.463,0.02,14.092,4.775,16.509,11.836c13.657,39.917,29.939,46.787,34.658,47.959
				c27.542-10.356,38.748-57.393,40.767-75.19c0.598-5.264,3.55-9.99,8.027-12.827c4.473-2.827,9.99-3.501,15.012-1.792
				c7.026,2.397,12.148,1.577,17.678-2.817c4.68-3.726,10.935-4.8,16.599-2.842c5.654,1.953,9.919,6.66,11.309,12.48
				c3.633,15.083,18.989,60.996,41.079,73.486c5.681,3.213,11.023,3.755,17.334,1.768c28.088-8.853,29.983-88.467,22.419-139.487
				c-0.959-6.47,1.768-12.935,7.07-16.763c5.303-3.833,12.295-4.38,18.135-1.431c8.196,4.146,12.109,4.199,13.108,4.106
				c10.706-12.983-10.647-106.479-64.521-172.266c-6.123-7.48-5.024-18.506,2.454-24.629c7.476-6.113,18.503-5.024,24.626,2.451
				c47.351,57.822,96.394,176.88,64.524,216.592c-4.629,5.762-13.223,13.022-27.781,12.905
				c3.999,47.466,3.767,135.112-49.517,151.899c-15.474,4.883-31.084,3.242-45.132-4.712
				c-27.322-15.483-43.748-52.124-51.824-75.532c-2.944,0.635-5.942,0.996-8.984,1.084c-6.135,26.978-22.974,76.123-65.537,88.071
				c-0.947,0.264-1.917,0.449-2.896,0.552C2110.13,2979.955,2109.254,2980.024,2108.043,2980.024z"/>
		</g>
		<g>
			<path style="fill:#390075;" d="M2056.029,2858.232c-7.188,0-14.258-1.431-21.016-4.297c-14.08-5.967-25.225-17.344-33.862-30.024
				c-8.665,12.7-19.829,24.092-33.911,30.044c-13.677,5.786-28.633,5.698-43.257-0.244c-8.953-3.638-13.259-13.848-9.619-22.803
				c3.64-8.955,13.848-13.267,22.803-9.619c6.069,2.466,11.299,2.603,16.443,0.43c11.021-4.658,22.444-19.941,31.345-41.934
				c2.673-6.606,9.092-10.933,16.221-10.933c0.005,0,0.01,0,0.017,0c7.136,0.005,13.552,4.346,16.216,10.967
				c8.835,21.943,20.232,37.217,31.267,41.895c5.149,2.183,10.378,2.046,16.458-0.425c8.953-3.647,19.165,0.669,22.803,9.619
				c3.64,8.955-0.667,19.165-9.619,22.803C2070.902,2856.723,2063.402,2858.232,2056.029,2858.232z"/>
		</g>
		<g>
			<path style="fill:#390075;" d="M2001.175,2803.852c-9.666,0-17.5-7.837-17.5-17.5v-81.353c0-9.663,7.834-17.5,17.5-17.5
				c9.665,0,17.5,7.837,17.5,17.5v81.353C2018.675,2796.015,2010.84,2803.852,2001.175,2803.852z"/>
		</g>
		<g>
			<path style="fill:#390075;" d="M1639.39,3365.004c-1.294,0-2.607-0.146-3.923-0.449c-9.421-2.158-15.308-11.543-13.149-20.967
				c12.183-53.159-8.301-93.94-8.508-94.346c-0.173-0.337-0.337-0.679-0.488-1.025l-24.177-55.718h-37.268
				c-9.666,0-17.5-7.837-17.5-17.5v-9.165h-25c-9.666,0-17.5-7.837-17.5-17.5s7.834-17.5,17.5-17.5h42.5
				c9.666,0,17.5,7.837,17.5,17.5v9.165h31.25c6.973,0,13.279,4.136,16.055,10.532l28.569,65.835
				c3.076,6.279,25.483,55.142,11.184,117.544C1654.576,3359.516,1647.369,3365.004,1639.39,3365.004z"/>
		</g>
		<g>
			<path style="fill:#390075;" d="M1629.366,3258.749c-3.393,0-6.821-0.986-9.836-3.037c-7.988-5.439-10.054-16.323-4.619-24.312
				c0.83-1.221,83.196-123.633,111.567-279.922c1.729-9.507,10.833-15.835,20.344-14.092c9.509,1.724,15.82,10.835,14.094,20.342
				c-29.749,163.877-113.528,288.164-117.08,293.379C1640.45,3256.073,1634.957,3258.749,1629.366,3258.749z"/>
		</g>
		<g>
			<path style="fill:#390075;" d="M1870.604,3498.749c-8.755,0-16.316-6.558-17.359-15.464
				c-4.997-42.656,10.496-74.38,16.939-85.425c4.219-43.491-11.125-70.122-18.877-80.542h-56.931
				c-5.872,0-11.353-2.944-14.595-7.842l-13.76-20.796l-20.625,5.894c-55.374,31.714-94.707,52.07-95.103,52.275
				c-8.589,4.434-19.141,1.074-23.579-7.515c-4.436-8.584-1.072-19.141,7.512-23.579c0.393-0.205,39.978-20.698,95.608-52.603
				c1.228-0.703,2.537-1.255,3.899-1.646l35-10c7.334-2.09,15.188,0.801,19.402,7.168l15.645,23.643h55.596
				c4.524,0,8.87,1.753,12.131,4.888c1.731,1.665,42.285,41.65,33.018,118.594c-0.347,2.861-1.392,5.591-3.047,7.949
				c-0.115,0.176-17.986,26.929-13.472,65.464c1.125,9.6-5.745,18.291-15.344,19.419
				C1871.971,3498.71,1871.282,3498.749,1870.604,3498.749z"/>
		</g>
		<g>
			<path style="fill:#390075;" d="M1887.164,3421.205c-5.603,0-11.106-2.686-14.492-7.671c-5.427-7.993-3.35-18.867,4.639-24.302
				c0.549-0.376,41.55-28.564,58.381-59.302c2.415-4.414,6.614-7.573,11.521-8.672c4.902-1.099,10.054-0.039,14.121,2.92
				l18.97,13.799l12.615-6.191c8.669-4.253,19.16-0.674,23.418,8.003c4.258,8.677,0.674,19.165-8.003,23.423l-22.085,10.835
				c-5.823,2.856-12.754,2.251-18-1.558l-12.654-9.204c-22.983,30.503-56.938,53.76-58.613,54.897
				C1893.97,3420.229,1890.55,3421.205,1887.164,3421.205z"/>
		</g>
		<g>
			<path style="fill:#390075;" d="M1743.687,3290.004c-2.327,0-4.69-0.469-6.96-1.455c-8.865-3.848-12.932-14.155-9.082-23.018
				c56.255-129.565,79.036-389.453,79.258-392.065c0.825-9.629,9.292-16.777,18.928-15.942c9.631,0.825,16.768,9.297,15.945,18.931
				c-0.933,10.884-23.486,268.188-82.026,403.013C1756.885,3286.064,1750.448,3290.004,1743.687,3290.004z"/>
		</g>
		<g>
			<path style="fill:#390075;" d="M1859.39,3317.323c-1.377,0-2.773-0.166-4.167-0.503c-9.39-2.295-15.142-11.768-12.847-21.157
				c41.641-170.41,54.438-340.635,54.563-342.334c0.705-9.639,9.133-16.953,18.73-16.177c9.639,0.703,16.88,9.087,16.177,18.726
				c-0.127,1.729-13.113,174.751-55.471,348.096C1874.422,3311.967,1867.266,3317.323,1859.39,3317.323z"/>
		</g>
		<g>
			<path style="fill:#390075;" d="M1951.053,3355.834c-0.249,0-0.5-0.005-0.752-0.015c-9.658-0.41-17.153-8.569-16.746-18.228
				c5.349-126.299,12.085-403.853,12.153-406.646c0.232-9.658,8.337-17.349,17.917-17.07c9.663,0.234,17.307,8.257,17.073,17.92
				c-0.068,2.788-6.811,280.664-12.173,407.28C1968.126,3348.481,1960.377,3355.834,1951.053,3355.834z"/>
		</g>
		<g>
			<path style="fill:#390075;" d="M2000.626,3681.249c-3.03,0-6.062-0.786-8.774-2.358
				c-89.316-51.763-103.919-140.62-105.432-183.657l-3.77,0.977c-23.516,41.094-80.52,64.048-83.084,65.059
				c-5.395,2.134-11.489,1.46-16.277-1.797c-4.795-3.257-7.664-8.677-7.664-14.473v-9.971
				c-143.711,59.824-202.398-48.257-203.005-49.414c-2.239-4.277-2.61-9.292-1.028-13.853s4.98-8.267,9.387-10.239
				c59.89-26.792,77.998-70.073,83.459-92.866l-14.692-2.046c-39.636,77.012-123.103,101.655-126.814,102.715
				c-5.303,1.528-11.016,0.444-15.413-2.905c-4.392-3.345-6.946-8.569-6.894-14.087l0.149-15.503
				c-50.388,21.064-96.453,24.673-137.234,10.698c-62.346-21.372-88.164-76.23-89.233-78.555c-1.97-4.292-2.126-9.194-0.43-13.599
				c1.694-4.404,5.098-7.935,9.436-9.795c58.137-24.917,82.786-56.196,92.939-75.166l-33.921-5.654
				c-5.466-0.908-10.181-4.355-12.703-9.292c-2.524-4.932-2.564-10.771-0.103-15.737c41.687-84.155,141.521-103.892,170.535-107.92
				c124.981-161.221,167.344-276.626,167.761-277.788c3.279-9.097,13.313-13.789,22.395-10.532
				c9.094,3.276,13.809,13.306,10.535,22.397c-1.804,5.01-45.715,124.619-177.593,293.228c-3.003,3.838-7.473,6.255-12.332,6.66
				c-0.974,0.083-90.901,8.569-137.004,68.75l29.26,4.878c4.597,0.767,8.701,3.335,11.396,7.134
				c2.698,3.804,3.767,8.525,2.971,13.115c-0.479,2.759-12.139,64.258-102.073,109.595c10.403,14.287,29.868,35.151,59.966,45.327
				c38.147,12.896,83.613,5.85,135.122-20.938c5.454-2.832,11.992-2.603,17.227,0.61c5.237,3.218,8.406,8.94,8.347,15.083
				l-0.166,17.222c25.945-12.437,67.502-38.745,87.378-85.854c3.079-7.3,10.686-11.606,18.535-10.532l44.912,6.25
				c8.745,1.216,15.212,8.755,15.085,17.583c-0.049,3.53-2.202,81.704-87.473,129.888c20.598,22.803,72.561,59.238,170.728,8.096
				c5.425-2.827,11.934-2.622,17.161,0.557c5.232,3.169,8.425,8.843,8.425,14.961v9.121c16.951-10.103,36.384-25.049,43.967-42.388
				c2.151-4.917,6.443-8.574,11.641-9.922l33.75-8.75c5.559-1.436,11.479-0.059,15.83,3.691c4.348,3.76,6.577,9.409,5.962,15.122
				c-0.471,4.575-10.229,110.342,78.845,168.818c89.556-58.931,78.977-167.69,78.855-168.818
				c-0.615-5.713,1.614-11.362,5.962-15.122c4.351-3.75,10.259-5.127,15.83-3.691l33.75,8.75c5.198,1.348,9.49,5.005,11.641,9.922
				c7.627,17.432,27.036,32.368,43.967,42.437v-9.17c0-6.118,3.193-11.792,8.425-14.961c5.227-3.179,11.736-3.384,17.161-0.557
				c98.108,51.113,150.078,14.751,170.72-8.101c-85.254-48.184-87.419-126.353-87.468-129.883
				c-0.127-8.828,6.34-16.367,15.085-17.583l44.915-6.25c7.861-1.069,15.459,3.232,18.535,10.532
				c19.871,47.1,61.421,73.408,87.375,85.85l-0.166-17.212c-0.059-6.147,3.11-11.87,8.347-15.088s11.775-3.447,17.227-0.61
				c51.514,26.787,96.973,33.823,135.125,20.938c30.088-10.176,49.548-31.025,59.958-45.327
				c-89.929-45.342-101.589-106.836-102.068-109.595c-0.796-4.59,0.273-9.312,2.971-13.115c2.695-3.799,6.799-6.367,11.396-7.134
				l29.282-4.883c-46.187-60.454-136.028-68.662-137.024-68.745c-4.858-0.405-9.329-2.817-12.332-6.66
				c-131.88-168.608-175.791-288.218-177.595-293.228c-3.276-9.092,1.44-19.121,10.535-22.397c9.08-3.262,19.109,1.431,22.39,10.522
				l0,0c0.422,1.162,43.149,117.041,167.769,277.798c29.014,4.028,128.848,23.765,170.532,107.92
				c2.461,4.966,2.422,10.806-0.103,15.737c-2.524,4.937-7.236,8.384-12.703,9.292l-33.94,5.659
				c10.125,18.901,34.763,50.22,92.959,75.161c4.338,1.86,7.742,5.391,9.436,9.795c1.697,4.404,1.541,9.307-0.43,13.599
				c-1.069,2.324-26.885,57.183-89.231,78.555c-40.776,13.979-86.841,10.376-137.236-10.698l0.151,15.498
				c0.051,5.522-2.502,10.747-6.895,14.092s-10.1,4.429-15.413,2.905c-3.711-1.06-87.178-25.703-126.814-102.715l-14.744,2.051
				c5.4,22.808,23.423,65.981,83.511,92.861c4.407,1.973,7.805,5.679,9.387,10.239s1.211,9.575-1.028,13.853
				c-0.476,0.908-36.621,67.441-121.343,67.451c-23.423,0-50.537-5.078-81.663-18.037v9.971c0,5.796-2.869,11.216-7.664,14.473
				c-4.79,3.257-10.886,3.931-16.277,1.797c-2.563-1.011-59.568-23.965-83.083-65.059l-3.77-0.977
				c-1.514,43.037-16.116,131.895-105.432,183.657C2006.688,3680.463,2003.656,3681.249,2000.626,3681.249z"/>
		</g>
		<g>
			<path style="fill:#390075;" d="M2361.861,3365.004c-7.979,0-15.186-5.488-17.043-13.594
				c-14.299-62.402,8.108-111.265,11.184-117.544l28.569-65.835c2.776-6.396,9.082-10.532,16.055-10.532h31.25v-9.165
				c0-9.663,7.834-17.5,17.5-17.5h42.5c9.666,0,17.5,7.837,17.5,17.5s-7.834,17.5-17.5,17.5h-25v9.165c0,9.663-7.834,17.5-17.5,17.5
				h-37.268l-24.177,55.718c-0.151,0.347-0.315,0.688-0.488,1.025c-0.173,0.347-20.557,41.777-8.508,94.346
				c2.158,9.424-3.728,18.809-13.149,20.967C2364.471,3364.858,2363.155,3365.004,2361.861,3365.004z"/>
		</g>
		<g>
			<path style="fill:#390075;" d="M2371.885,3258.749c-5.591,0-11.084-2.676-14.47-7.642
				c-3.552-5.215-87.334-129.502-117.083-293.379c-1.726-9.507,4.585-18.618,14.094-20.342c9.521-1.758,18.616,4.585,20.344,14.092
				c28.372,156.289,110.74,278.701,111.57,279.922c5.435,7.988,3.369,18.872-4.617,24.312
				C2378.707,3257.763,2375.279,3258.749,2371.885,3258.749z"/>
		</g>
		<g>
			<path style="fill:#390075;" d="M2130.648,3498.749c-0.679,0-1.365-0.039-2.058-0.117c-9.597-1.123-16.47-9.819-15.344-19.419
				c4.512-38.55-13.291-65.205-13.472-65.464c-1.655-2.358-2.7-5.088-3.047-7.949c-9.268-76.943,31.287-116.929,33.018-118.594
				c3.262-3.135,7.607-4.888,12.131-4.888h55.596l15.642-23.643c4.214-6.357,12.068-9.253,19.402-7.168l35,10
				c1.362,0.391,2.671,0.942,3.899,1.646c55.691,31.938,95.215,52.397,95.608,52.603c8.586,4.438,11.948,14.995,7.512,23.579
				c-4.436,8.594-14.985,11.953-23.582,7.515c-0.393-0.205-39.724-20.562-95.1-52.275l-20.625-5.894l-13.757,20.796
				c-3.24,4.897-8.723,7.842-14.595,7.842h-56.946c-7.683,10.327-23.091,36.973-18.862,80.547
				c6.44,11.04,21.934,42.764,16.938,85.42C2146.964,3492.192,2139.403,3498.749,2130.648,3498.749z"/>
		</g>
		<g>
			<path style="fill:#390075;" d="M2114.088,3421.205c-3.386,0-6.804-0.977-9.817-3.022c-1.675-1.138-35.63-24.395-58.616-54.897
				l-12.654,9.204c-5.247,3.809-12.178,4.414-18,1.558l-22.083-10.835c-8.677-4.258-12.261-14.746-8.003-23.423
				c4.258-8.677,14.754-12.251,23.418-8.003l12.612,6.191l18.97-13.799c4.07-2.954,9.209-4.009,14.121-2.92
				c4.907,1.099,9.104,4.258,11.521,8.667c14.06,25.679,46.907,51.514,58.376,59.302c7.996,5.43,10.076,16.313,4.646,24.307
				C2125.196,3418.52,2119.688,3421.205,2114.088,3421.205z"/>
		</g>
		<g>
			<path style="fill:#390075;" d="M2257.562,3290.004c-6.76,0-13.198-3.94-16.062-10.537
				c-58.54-134.824-81.094-392.129-82.026-403.013c-0.823-9.634,6.313-18.105,15.945-18.931c9.585-0.83,18.103,6.313,18.928,15.942
				c0.222,2.612,23.003,262.5,79.258,392.065c3.85,8.862-0.217,19.17-9.082,23.018
				C2262.252,3289.535,2259.886,3290.004,2257.562,3290.004z"/>
		</g>
		<g>
			<path style="fill:#390075;" d="M2141.861,3317.323c-7.876,0-15.032-5.356-16.985-13.35
				c-42.358-173.345-55.347-346.367-55.474-348.096c-0.706-9.639,6.538-18.022,16.177-18.726c9.644-0.781,18.025,6.533,18.73,16.177
				c0.125,1.699,12.925,171.924,54.565,342.334c2.295,9.39-3.457,18.862-12.847,21.157
				C2144.635,3317.157,2143.238,3317.323,2141.861,3317.323z"/>
		</g>
		<g>
			<path style="fill:#390075;" d="M2050.196,3355.834c-9.326,0-17.073-7.354-17.473-16.758
				c-5.361-126.616-12.104-404.492-12.173-407.28c-0.234-9.663,7.41-17.686,17.073-17.92c9.795-0.313,17.683,7.412,17.917,17.07
				c0.068,2.793,6.804,280.352,12.153,406.646c0.408,9.658-7.087,17.817-16.746,18.228
				C2050.697,3355.829,2050.445,3355.834,2050.196,3355.834z"/>
		</g>
		<g style="opacity:0.25;">
			<path style="fill:#390075;" d="M962.708,2127.5c0,0,79.167-205,217.5-264.167l57.974,65.543l17.443,0.291l53.714-40.578
				c0,0,41.703,84.745,63.37,98.911s35.833-10,35.833-10l44.739-22.979c0,0,19.941,89.381,53.434,94.513
				c33.493,5.133,44.417-30.467,44.417-30.467l29.91,63.1l-17.5,55l0.833,72.5c0,0-3.14-196.667-85.32-25.417
				c-6.46-125.183-42.894-171.819-142.18-53.75c-11.932-149.258-73.077-156.522-186.782-12.132
				C1169.54,1946.34,1112.431,1938.131,962.708,2127.5z"/>
		</g>
		<g style="opacity:0.25;">
			<path style="fill:#390075;" d="M3038.376,2127.5c0,0-79.167-205-217.5-264.167l-57.974,65.543l-17.442,0.291l-53.714-40.578
				c0,0-41.703,84.745-63.37,98.911c-21.667,14.167-35.833-10-35.833-10l-44.74-22.979c0,0-19.941,89.381-53.434,94.513
				c-33.493,5.133-44.417-30.467-44.417-30.467l-29.909,63.1l17.5,55l-0.833,72.5c0,0,3.14-196.667,85.32-25.417
				c6.46-125.183,42.894-171.819,142.18-53.75c11.932-149.258,73.077-156.522,186.781-12.132
				C2831.545,1946.34,2888.654,1938.131,3038.376,2127.5z"/>
		</g>
	</g>
</g>
</svg>
